<svg xmlns="http://www.w3.org/2000/svg" width="465" height="408" viewBox="0 0 465 408" fill="none"><path d="M-33.0408 396.439C-32.9771 398.902 -32.2241 401.372 -30.6791 403.346C-29.1361 405.319 -26.9585 406.631 -24.5583 407.003C-22.1581 407.375 -19.6856 406.784 -17.6175 405.369C-15.5476 403.955 -14.0827 401.829 -13.2766 399.501C-9.74888 389.606 -5.56787 379.708 -1.03661 370.167C43.3511 279.68 111.686 208.396 189.288 152.777C259.359 102.862 338.434 64.078 425.716 31.8621C435.826 28.104 446.096 24.4199 456.735 20.7898C459.051 19.9915 461.183 18.5624 462.622 16.5274C464.061 14.4945 464.695 12.0539 464.373 9.66768C464.05 7.28148 462.792 5.09629 460.865 3.51793C458.938 1.9376 456.504 1.12508 454.059 0.969665C442.574 0.327953 431.317 -0.00474149 420.094 2.97738e-05C323.625 0.0202265 223.747 27.3408 141.708 85.9927C50.4787 150.56 -17.1033 251.987 -31.1283 361.713C-32.5152 373.239 -33.259 384.985 -33.0408 396.439Z" fill="url(#paint0_linear_1_222)"></path><defs><linearGradient id="paint0_linear_1_222" x1="207.578" y1="407.666" x2="224.66" y2="1.18339" gradientUnits="userSpaceOnUse"><stop stop-color="#0CB6FF"></stop><stop offset="1" stop-color="#093B51"></stop></linearGradient></defs></svg>