<svg xmlns="http://www.w3.org/2000/svg" width="490" height="488" viewBox="0 0 490 488" fill="none"><path d="M555.26 10.5154C555.217 8.01183 554.398 5.52028 552.772 3.56403C551.148 1.60797 548.877 0.350719 546.41 0.0631762C543.944 -0.224367 541.445 0.476819 539.414 2.00683C537.382 3.53661 536.012 5.77313 535.394 8.19962C532.33 19.9287 528.47 31.7509 524.146 43.2041C481.593 151.99 406.22 241.641 317.213 310.519C236.883 372.464 144.229 419.029 43.3933 455.219C31.7073 459.438 19.8495 463.538 7.58391 467.554C5.21784 468.335 3.07822 469.83 1.6754 471.939C0.272276 474.046 -0.284113 476.565 0.137857 478.996C0.559887 481.427 1.93282 483.611 3.96408 485.122C5.99563 486.635 8.51398 487.321 11.0048 487.259C24.1684 486.859 37.0368 486.15 49.8329 485.093C159.885 476.04 271.102 438.442 361.781 368.335C462.595 291.007 536.731 175.204 552.946 50.1366C554.543 36.9931 555.43 23.5943 555.26 10.5154Z" fill="url(#paint0_linear_1_223)"></path><defs><linearGradient id="paint0_linear_1_223" x1="278.329" y1="8.20092" x2="276.292" y2="478.563" gradientUnits="userSpaceOnUse"><stop stop-color="#0CB6FF"></stop><stop offset="1" stop-color="#073245"></stop></linearGradient></defs></svg>